# xmcd
#
# Track frame offsets:
#	150
#	10495
#	22065
#	34323
#	45695
#	57389
#	70885
#	82628
#	94158
#	110927
#	120371
#	132458
#	144049
#	156920
#
# Disc length: 2233 seconds
# Revision: 0
# Processed by: cddbd v1.5.2PL0 Copyright (c) Steve Scherf et al.
# Submitted via: dBpowerAMP V12.0
#
DISCID=be08b70e
DTITLE=Laney With Russ Hicks - A Tribute To Connie
DYEAR=2006
DGENRE=Country
TTITLE0=Ain't Had No Lovin'
TTITLE1=Cry, Cry, Cry
TTITLE2=I Don't Know Why I Keep Loving You
TTITLE3=If I Talk To Him
TTITLE4=Tiny Blue Transistor Radio
TTITLE5=Darlin' Are You Ever Coming Home
TTITLE6=Nobody But A Fool
TTITLE7=Then and Only Then
TTITLE8=Deepening Snow
TTITLE9=I'll Come Running
TTITLE10=I'll Never Get Over Lovin' You
TTITLE11=I Can't Remember
TTITLE12=The Hurtins' All Over
TTITLE13=Once A Day
EXTD=
EXTT0=
EXTT1=
EXTT2=
EXTT3=
EXTT4=
EXTT5=
EXTT6=
EXTT7=
EXTT8=
EXTT9=
EXTT10=
EXTT11=
EXTT12=
EXTT13=
PLAYORDER=
